<svg xmlns="http://www.w3.org/2000/svg" viewBox="0 0 276.12 30.99"><defs><style>.cls-1{fill:#040006;}.cls-2{fill:#242424;}</style></defs><title>Ativo 2</title><g id="Camada_2" data-name="Camada 2"><g id="Camada_1-2" data-name="Camada 1"><polygon class="cls-1" points="8.73 20.07 9.34 21.86 6.91 21.86 6.3 20.07 8.73 20.07"/><polygon class="cls-1" points="15.81 20.07 15.21 21.86 12.81 21.86 13.45 20.07 15.81 20.07"/><polygon class="cls-1" points="30.23 21.86 27.87 21.86 27.27 20.07 29.59 20.07 30.23 21.86"/><polygon class="cls-1" points="51.63 20.07 51.63 21.86 33.74 21.86 34.35 20.07 51.63 20.07"/><polygon class="cls-1" points="16.46 16.75 16.14 17.64 5.97 17.64 5.65 16.75 16.46 16.75"/><polygon class="cls-1" points="37.35 16.75 37.07 17.64 26.91 17.64 26.59 16.75 37.35 16.75"/><rect class="cls-1" x="49.73" y="16.75" width="1.43" height="0.89"/><path class="cls-2" d="M7.16,16.75,1.54.18H0L5.65,16.75l.33.89h1.5ZM41.58.18,35.89,16.75l-.29.89h1.47l.28-.89L43,.18ZM28,16.75,22.26.18H20.82L15,16.75l-.32.89h1.43l.32-.89,5-14.57,5.08,14.57.33.89h1.43Z"/><path class="cls-2" d="M72.28.18V14.31H51.17V.18H49.73V17.64h1.44v-2H72.28v2h1.43V.18Z"/><path class="cls-2" d="M110.7,7.44A14.66,14.66,0,0,0,105.12,2a16.48,16.48,0,0,0-7.94-2,16.31,16.31,0,0,0-7.94,2,14.24,14.24,0,0,0-5.55,5.47,15,15,0,0,0-2,7.77,11.17,11.17,0,0,0,.11,1.54,3.44,3.44,0,0,0,.11.89h1.46a7.13,7.13,0,0,1-.14-.89c0-.51-.07-1-.07-1.54A13.63,13.63,0,0,1,85,8.12a13,13,0,0,1,5-5,14.08,14.08,0,0,1,7.16-1.83,14.29,14.29,0,0,1,7.16,1.83,13.39,13.39,0,0,1,5.08,5,14,14,0,0,1,1.82,7.09c0,.53,0,1-.07,1.54,0,.28-.07.6-.14.89h1.46a3.94,3.94,0,0,0,.11-.89,11.17,11.17,0,0,0,.11-1.54A15.25,15.25,0,0,0,110.7,7.44Z"/><path class="cls-2" d="M120.65.18V17.64h1.47V.18Z"/><path class="cls-2" d="M134.5,3.11c1.5-1.21,3.72-1.82,6.62-1.82a13.81,13.81,0,0,1,4.29.68,12.37,12.37,0,0,1,3.9,1.93L150,2.75a13.32,13.32,0,0,0-4.08-2A16.77,16.77,0,0,0,141.08,0a13.58,13.58,0,0,0-5.72,1.07A7.21,7.21,0,0,0,132,3.86a7.1,7.1,0,0,0-1.15,3.87,6.25,6.25,0,0,0,1.4,4.26,8.49,8.49,0,0,0,3.33,2.36,45.08,45.08,0,0,0,5.26,1.57c1.14.29,2.18.57,3,.83.64.17,1.25.39,1.75.57.25.11.5.21.72.32h2.57a7.81,7.81,0,0,0-2.4-1.43,44,44,0,0,0-5.22-1.58,41,41,0,0,1-4.79-1.39,8.43,8.43,0,0,1-3-2,4.85,4.85,0,0,1-1.22-3.5A5.72,5.72,0,0,1,134.5,3.11Z"/><path class="cls-2" d="M153.28.18V1.5h11V17.64h1.43V1.5h11V.18Z"/><path class="cls-2" d="M202.12,1.5V.18H182.44V17.64h1.43v-2h16.32V14.31H183.87V1.5Z"/><path class="cls-2" d="M228.92,16.75,221.27.18h-1.44l-7.65,16.57-.43.89h1.54l.39-.89,6.87-14.89,6.83,14.89.4.89h1.54Z"/><path class="cls-2" d="M271,.18h-1.18L260.3,16.75l-.5.89h1.43l.54-.89,7.83-13.6,0,13.6v.89H271v-.89ZM251.71,16.75,242.2.18H241V17.64h1.39V3.22l7.84,13.53.53.89h1.44Z"/><path class="cls-2" d="M34.85,20.07l-.64,1.79L32,28.3l-2.25-6.44-.61-1.79H27.73l.61,1.79,3,8.52h1.46l2.9-8.52.61-1.79Zm-20.93,0-.61,1.79-2.25,6.41L8.87,21.86l-.6-1.79H6.76l.61,1.79,2.9,8.52h1.5l3-8.52.61-1.79Z"/><path class="cls-2" d="M35.82,20.07l-.61,1.79L32.45,30h-.82L28.8,21.86l-.61-1.79h-.93l.61,1.79,3.12,9H33.1l3-8.95.61-1.79Zm-1.47,0-.61,1.79L32,26.94l-1.76-5.08-.64-1.79h-.93l.64,1.79L32,29.7l2.69-7.84.61-1.79Zm-19.47,0-.6,1.79L11.45,30h-.86L7.84,21.86l-.61-1.79H6.3l.61,1.79,3,9h2.14l3.12-8.95.6-1.79Zm-1.43,0-.64,1.79-1.75,5.05L9.34,21.86l-.61-1.79H7.8l.61,1.79,2.65,7.8,2.72-7.8.64-1.79Z"/><path class="cls-2" d="M49.73,20.07V30.38H51.2V20.07Zm22.55,0V30.38h1.46V20.07Z"/><path class="cls-2" d="M50.74,20.07V30H50.2V20.07h-.89V30.81h2.32V20.07Zm22.54,0V30h-.54V20.07h-.89V30.81h2.32V20.07Z"/><path class="cls-2" d="M110.49,20.07a8.87,8.87,0,0,1-.79,1.79,2.75,2.75,0,0,1-.28.57,12.93,12.93,0,0,1-5,5,15.05,15.05,0,0,1-14.35,0,13.38,13.38,0,0,1-5-5,2.35,2.35,0,0,1-.29-.57,8.71,8.71,0,0,1-.75-1.79H82.4a11.37,11.37,0,0,0,.68,1.79c.18.43.4.86.61,1.25a14.68,14.68,0,0,0,5.58,5.48,16.93,16.93,0,0,0,15.85,0,14.14,14.14,0,0,0,5.58-5.48,8.23,8.23,0,0,0,.65-1.25,11.37,11.37,0,0,0,.68-1.79Z"/><path class="cls-2" d="M110,20.07a8.87,8.87,0,0,1-.79,1.79,1.51,1.51,0,0,1-.18.36,12.54,12.54,0,0,1-4.9,4.79,14.5,14.5,0,0,1-13.85,0,12.6,12.6,0,0,1-4.9-4.79,2,2,0,0,1-.18-.36,8.31,8.31,0,0,1-.78-1.79h-.93a7.07,7.07,0,0,0,.75,1.79,4.84,4.84,0,0,0,.39.79,13.58,13.58,0,0,0,5.19,5.15,14.68,14.68,0,0,0,7.37,1.86,14.83,14.83,0,0,0,7.41-1.86,13.66,13.66,0,0,0,5.22-5.15,4.84,4.84,0,0,0,.39-.79,8.89,8.89,0,0,0,.75-1.79Zm0,0a8.87,8.87,0,0,1-.79,1.79,1.51,1.51,0,0,1-.18.36,12.54,12.54,0,0,1-4.9,4.79,14.5,14.5,0,0,1-13.85,0,12.6,12.6,0,0,1-4.9-4.79,2,2,0,0,1-.18-.36,8.31,8.31,0,0,1-.78-1.79h-.93a7.07,7.07,0,0,0,.75,1.79,4.84,4.84,0,0,0,.39.79,13.58,13.58,0,0,0,5.19,5.15,14.68,14.68,0,0,0,7.37,1.86,14.83,14.83,0,0,0,7.41-1.86,13.66,13.66,0,0,0,5.22-5.15,4.84,4.84,0,0,0,.39-.79,8.89,8.89,0,0,0,.75-1.79Zm0,0a8.87,8.87,0,0,1-.79,1.79,1.51,1.51,0,0,1-.18.36,12.54,12.54,0,0,1-4.9,4.79,14.5,14.5,0,0,1-13.85,0,12.6,12.6,0,0,1-4.9-4.79,2,2,0,0,1-.18-.36,8.31,8.31,0,0,1-.78-1.79h-.93a7.07,7.07,0,0,0,.75,1.79,4.84,4.84,0,0,0,.39.79,13.58,13.58,0,0,0,5.19,5.15,14.68,14.68,0,0,0,7.37,1.86,14.83,14.83,0,0,0,7.41-1.86,13.66,13.66,0,0,0,5.22-5.15,4.84,4.84,0,0,0,.39-.79,8.89,8.89,0,0,0,.75-1.79Zm0,0a8.87,8.87,0,0,1-.79,1.79,1.51,1.51,0,0,1-.18.36,12.54,12.54,0,0,1-4.9,4.79,14.5,14.5,0,0,1-13.85,0,12.6,12.6,0,0,1-4.9-4.79,2,2,0,0,1-.18-.36,8.31,8.31,0,0,1-.78-1.79h-.93a7.07,7.07,0,0,0,.75,1.79,4.84,4.84,0,0,0,.39.79,13.58,13.58,0,0,0,5.19,5.15,14.68,14.68,0,0,0,7.37,1.86,14.83,14.83,0,0,0,7.41-1.86,13.66,13.66,0,0,0,5.22-5.15,4.84,4.84,0,0,0,.39-.79,8.89,8.89,0,0,0,.75-1.79Zm0,0a8.87,8.87,0,0,1-.79,1.79,1.51,1.51,0,0,1-.18.36,12.54,12.54,0,0,1-4.9,4.79,14.5,14.5,0,0,1-13.85,0,12.6,12.6,0,0,1-4.9-4.79,2,2,0,0,1-.18-.36,8.31,8.31,0,0,1-.78-1.79h-.93a7.07,7.07,0,0,0,.75,1.79,4.84,4.84,0,0,0,.39.79,13.58,13.58,0,0,0,5.19,5.15,14.68,14.68,0,0,0,7.37,1.86,14.83,14.83,0,0,0,7.41-1.86,13.66,13.66,0,0,0,5.22-5.15,4.84,4.84,0,0,0,.39-.79,8.89,8.89,0,0,0,.75-1.79Zm0,0a8.87,8.87,0,0,1-.79,1.79,1.51,1.51,0,0,1-.18.36,12.54,12.54,0,0,1-4.9,4.79,14.5,14.5,0,0,1-13.85,0,12.6,12.6,0,0,1-4.9-4.79,2,2,0,0,1-.18-.36,8.31,8.31,0,0,1-.78-1.79h-.93a7.07,7.07,0,0,0,.75,1.79,4.84,4.84,0,0,0,.39.79,13.58,13.58,0,0,0,5.19,5.15,14.68,14.68,0,0,0,7.37,1.86,14.83,14.83,0,0,0,7.41-1.86,13.66,13.66,0,0,0,5.22-5.15,4.84,4.84,0,0,0,.39-.79,8.89,8.89,0,0,0,.75-1.79Zm0,0a8.87,8.87,0,0,1-.79,1.79,1.51,1.51,0,0,1-.18.36,12.54,12.54,0,0,1-4.9,4.79,14.5,14.5,0,0,1-13.85,0,12.6,12.6,0,0,1-4.9-4.79,2,2,0,0,1-.18-.36,8.31,8.31,0,0,1-.78-1.79h-.93a7.07,7.07,0,0,0,.75,1.79,4.84,4.84,0,0,0,.39.79,13.58,13.58,0,0,0,5.19,5.15,14.68,14.68,0,0,0,7.37,1.86,14.83,14.83,0,0,0,7.41-1.86,13.66,13.66,0,0,0,5.22-5.15,4.84,4.84,0,0,0,.39-.79,8.89,8.89,0,0,0,.75-1.79Zm0,0a8.87,8.87,0,0,1-.79,1.79,1.51,1.51,0,0,1-.18.36,12.54,12.54,0,0,1-4.9,4.79,14.5,14.5,0,0,1-13.85,0,12.6,12.6,0,0,1-4.9-4.79,2,2,0,0,1-.18-.36,8.31,8.31,0,0,1-.78-1.79h-.93a7.07,7.07,0,0,0,.75,1.79,4.84,4.84,0,0,0,.39.79,13.58,13.58,0,0,0,5.19,5.15,14.68,14.68,0,0,0,7.37,1.86,14.83,14.83,0,0,0,7.41-1.86,13.66,13.66,0,0,0,5.22-5.15,4.84,4.84,0,0,0,.39-.79,8.89,8.89,0,0,0,.75-1.79Zm0,0a8.87,8.87,0,0,1-.79,1.79,1.51,1.51,0,0,1-.18.36,12.54,12.54,0,0,1-4.9,4.79,14.5,14.5,0,0,1-13.85,0,12.6,12.6,0,0,1-4.9-4.79,2,2,0,0,1-.18-.36,8.31,8.31,0,0,1-.78-1.79h-.93a7.07,7.07,0,0,0,.75,1.79,4.84,4.84,0,0,0,.39.79,13.58,13.58,0,0,0,5.19,5.15,14.68,14.68,0,0,0,7.37,1.86,14.83,14.83,0,0,0,7.41-1.86,13.66,13.66,0,0,0,5.22-5.15,4.84,4.84,0,0,0,.39-.79,8.89,8.89,0,0,0,.75-1.79Zm1.54,0a7.22,7.22,0,0,1-.72,1.79,3.83,3.83,0,0,1-.5,1,14.15,14.15,0,0,1-5.4,5.29,15.86,15.86,0,0,1-7.73,1.9,15.71,15.71,0,0,1-7.69-1.9,14.17,14.17,0,0,1-5.41-5.29,10,10,0,0,1-.5-1,8.56,8.56,0,0,1-.71-1.79h-.93a7.81,7.81,0,0,0,.64,1.79,13.55,13.55,0,0,0,.75,1.47A14.68,14.68,0,0,0,89.06,29a16.57,16.57,0,0,0,8.12,2,16.78,16.78,0,0,0,8.16-2,15.1,15.1,0,0,0,5.76-5.65,8.64,8.64,0,0,0,.71-1.47,8.35,8.35,0,0,0,.65-1.79Zm-1.54,0a8.87,8.87,0,0,1-.79,1.79,1.51,1.51,0,0,1-.18.36,12.54,12.54,0,0,1-4.9,4.79,14.5,14.5,0,0,1-13.85,0,12.6,12.6,0,0,1-4.9-4.79,2,2,0,0,1-.18-.36,8.31,8.31,0,0,1-.78-1.79h-.93a7.07,7.07,0,0,0,.75,1.79,4.84,4.84,0,0,0,.39.79,13.58,13.58,0,0,0,5.19,5.15,14.68,14.68,0,0,0,7.37,1.86,14.83,14.83,0,0,0,7.41-1.86,13.66,13.66,0,0,0,5.22-5.15,4.84,4.84,0,0,0,.39-.79,8.89,8.89,0,0,0,.75-1.79Zm0,0a8.87,8.87,0,0,1-.79,1.79,1.51,1.51,0,0,1-.18.36,12.54,12.54,0,0,1-4.9,4.79,14.5,14.5,0,0,1-13.85,0,12.6,12.6,0,0,1-4.9-4.79,2,2,0,0,1-.18-.36,8.31,8.31,0,0,1-.78-1.79h-.93a7.07,7.07,0,0,0,.75,1.79,4.84,4.84,0,0,0,.39.79,13.58,13.58,0,0,0,5.19,5.15,14.68,14.68,0,0,0,7.37,1.86,14.83,14.83,0,0,0,7.41-1.86,13.66,13.66,0,0,0,5.22-5.15,4.84,4.84,0,0,0,.39-.79,8.89,8.89,0,0,0,.75-1.79Zm0,0a8.87,8.87,0,0,1-.79,1.79,1.51,1.51,0,0,1-.18.36,12.54,12.54,0,0,1-4.9,4.79,14.5,14.5,0,0,1-13.85,0,12.6,12.6,0,0,1-4.9-4.79,2,2,0,0,1-.18-.36,8.31,8.31,0,0,1-.78-1.79h-.93a7.07,7.07,0,0,0,.75,1.79,4.84,4.84,0,0,0,.39.79,13.58,13.58,0,0,0,5.19,5.15,14.68,14.68,0,0,0,7.37,1.86,14.83,14.83,0,0,0,7.41-1.86,13.66,13.66,0,0,0,5.22-5.15,4.84,4.84,0,0,0,.39-.79,8.89,8.89,0,0,0,.75-1.79Zm0,0a8.87,8.87,0,0,1-.79,1.79,1.51,1.51,0,0,1-.18.36,12.54,12.54,0,0,1-4.9,4.79,14.5,14.5,0,0,1-13.85,0,12.6,12.6,0,0,1-4.9-4.79,2,2,0,0,1-.18-.36,8.31,8.31,0,0,1-.78-1.79h-.93a7.07,7.07,0,0,0,.75,1.79,4.84,4.84,0,0,0,.39.79,13.58,13.58,0,0,0,5.19,5.15,14.68,14.68,0,0,0,7.37,1.86,14.83,14.83,0,0,0,7.41-1.86,13.66,13.66,0,0,0,5.22-5.15,4.84,4.84,0,0,0,.39-.79,8.89,8.89,0,0,0,.75-1.79Zm0,0a8.87,8.87,0,0,1-.79,1.79,1.51,1.51,0,0,1-.18.36,12.54,12.54,0,0,1-4.9,4.79,14.5,14.5,0,0,1-13.85,0,12.6,12.6,0,0,1-4.9-4.79,2,2,0,0,1-.18-.36,8.31,8.31,0,0,1-.78-1.79h-.93a7.07,7.07,0,0,0,.75,1.79,4.84,4.84,0,0,0,.39.79,13.58,13.58,0,0,0,5.19,5.15,14.68,14.68,0,0,0,7.37,1.86,14.83,14.83,0,0,0,7.41-1.86,13.66,13.66,0,0,0,5.22-5.15,4.84,4.84,0,0,0,.39-.79,8.89,8.89,0,0,0,.75-1.79Zm0,0a8.87,8.87,0,0,1-.79,1.79,1.51,1.51,0,0,1-.18.36,12.54,12.54,0,0,1-4.9,4.79,14.5,14.5,0,0,1-13.85,0,12.6,12.6,0,0,1-4.9-4.79,2,2,0,0,1-.18-.36,8.31,8.31,0,0,1-.78-1.79h-.93a7.07,7.07,0,0,0,.75,1.79,4.84,4.84,0,0,0,.39.79,13.58,13.58,0,0,0,5.19,5.15,14.68,14.68,0,0,0,7.37,1.86,14.83,14.83,0,0,0,7.41-1.86,13.66,13.66,0,0,0,5.22-5.15,4.84,4.84,0,0,0,.39-.79,8.89,8.89,0,0,0,.75-1.79Zm0,0a8.87,8.87,0,0,1-.79,1.79,1.51,1.51,0,0,1-.18.36,12.54,12.54,0,0,1-4.9,4.79,14.5,14.5,0,0,1-13.85,0,12.6,12.6,0,0,1-4.9-4.79,2,2,0,0,1-.18-.36,8.31,8.31,0,0,1-.78-1.79h-.93a7.07,7.07,0,0,0,.75,1.79,4.84,4.84,0,0,0,.39.79,13.58,13.58,0,0,0,5.19,5.15,14.68,14.68,0,0,0,7.37,1.86,14.83,14.83,0,0,0,7.41-1.86,13.66,13.66,0,0,0,5.22-5.15,4.84,4.84,0,0,0,.39-.79,8.89,8.89,0,0,0,.75-1.79Zm0,0a8.87,8.87,0,0,1-.79,1.79,1.51,1.51,0,0,1-.18.36,12.54,12.54,0,0,1-4.9,4.79,14.5,14.5,0,0,1-13.85,0,12.6,12.6,0,0,1-4.9-4.79,2,2,0,0,1-.18-.36,8.31,8.31,0,0,1-.78-1.79h-.93a7.07,7.07,0,0,0,.75,1.79,4.84,4.84,0,0,0,.39.79,13.58,13.58,0,0,0,5.19,5.15,14.68,14.68,0,0,0,7.37,1.86,14.83,14.83,0,0,0,7.41-1.86,13.66,13.66,0,0,0,5.22-5.15,4.84,4.84,0,0,0,.39-.79,8.89,8.89,0,0,0,.75-1.79Zm0,0a8.87,8.87,0,0,1-.79,1.79,1.51,1.51,0,0,1-.18.36,12.54,12.54,0,0,1-4.9,4.79,14.5,14.5,0,0,1-13.85,0,12.6,12.6,0,0,1-4.9-4.79,2,2,0,0,1-.18-.36,8.31,8.31,0,0,1-.78-1.79h-.93a7.07,7.07,0,0,0,.75,1.79,4.84,4.84,0,0,0,.39.79,13.58,13.58,0,0,0,5.19,5.15,14.68,14.68,0,0,0,7.37,1.86,14.83,14.83,0,0,0,7.41-1.86,13.66,13.66,0,0,0,5.22-5.15,4.84,4.84,0,0,0,.39-.79,8.89,8.89,0,0,0,.75-1.79Zm0,0a8.87,8.87,0,0,1-.79,1.79,1.51,1.51,0,0,1-.18.36,12.54,12.54,0,0,1-4.9,4.79,14.5,14.5,0,0,1-13.85,0,12.6,12.6,0,0,1-4.9-4.79,2,2,0,0,1-.18-.36,8.31,8.31,0,0,1-.78-1.79h-.93a7.07,7.07,0,0,0,.75,1.79,4.84,4.84,0,0,0,.39.79,13.58,13.58,0,0,0,5.19,5.15,14.68,14.68,0,0,0,7.37,1.86,14.83,14.83,0,0,0,7.41-1.86,13.66,13.66,0,0,0,5.22-5.15,4.84,4.84,0,0,0,.39-.79,8.89,8.89,0,0,0,.75-1.79Z"/><path class="cls-2" d="M120.69,20.07V30.38h1.43V20.07Z"/><path class="cls-2" d="M121.69,20.07V30h-.57V20.07h-.9V30.81h2.36V20.07Z"/><path class="cls-2" d="M151.14,21.86a6,6,0,0,0-.47-1.79h-1.61a5,5,0,0,1,.64,1.79,9.1,9.1,0,0,1,.08,1,5.54,5.54,0,0,1-2.29,4.58c-1.54,1.18-3.8,1.79-6.8,1.79A14.63,14.63,0,0,1,135,28.16a10.79,10.79,0,0,1-4.18-2.79l-.79,1a11.11,11.11,0,0,0,4.54,3,16.47,16.47,0,0,0,6.19,1.18,14.71,14.71,0,0,0,5.84-1,7.55,7.55,0,0,0,3.5-2.79,7.1,7.1,0,0,0,1.15-3.87C151.21,22.51,151.17,22.18,151.14,21.86Z"/><path class="cls-2" d="M151.57,21.86a5.71,5.71,0,0,0-.4-1.79h-1a5.47,5.47,0,0,1,.46,1.79,4.67,4.67,0,0,1,.07,1,6.46,6.46,0,0,1-1.07,3.62,7.14,7.14,0,0,1-3.29,2.65,14.57,14.57,0,0,1-5.66,1,16.31,16.31,0,0,1-6-1.11,11.24,11.24,0,0,1-4.12-2.61l.25-.32a12.12,12.12,0,0,0,4,2.54,15.53,15.53,0,0,0,5.91,1.11c3.08,0,5.47-.61,7.08-1.86a6.11,6.11,0,0,0,2.47-4.94,8.5,8.5,0,0,0-.07-1,5.92,5.92,0,0,0-.61-1.79h-1.07a3.76,3.76,0,0,1,.75,1.79,5,5,0,0,1,.11,1,5.07,5.07,0,0,1-2.15,4.22c-1.43,1.11-3.65,1.68-6.51,1.68a15.28,15.28,0,0,1-5.58-1,10.62,10.62,0,0,1-4-2.72l-.36-.4-1.32,1.76.21.28a11.94,11.94,0,0,0,4.73,3.11A17.27,17.27,0,0,0,140.72,31a14.78,14.78,0,0,0,6-1.08A7.89,7.89,0,0,0,150.42,27a7.41,7.41,0,0,0,1.22-4.12A4.67,4.67,0,0,0,151.57,21.86Z"/><path class="cls-2" d="M164.34,20.07V30.38h1.43V20.07Z"/><path class="cls-2" d="M165.3,20.07V30h-.53V20.07h-.9V30.81h2.33V20.07Z"/><path class="cls-2" d="M183.91,29.05v-9h-1.47V30.38h20.33V29.05Z"/><path class="cls-2" d="M184.38,28.59V20.07h-.9v9.41H202.3V30H182.91V20.07H182V30.81H203.2V28.59Z"/><path class="cls-2" d="M231.25,21.86l-.82-1.79h-1.54l.1.25H212.14l.11-.25h-1.54l-.82,1.79L206,30.38h1.58l3.9-8.52.14-.28h18l.14.28,3.9,8.52h1.57Z"/><path class="cls-2" d="M229.39,20.07H211.75l-.32.72h18.28Zm0,0H211.75l-.32.72h18.28Zm0,0H211.75l-.32.72h18.28Zm0,0H211.75l-.32.72h18.28Zm0,0H211.75l-.32.72h18.28Zm0,0H211.75l-.32.72h18.28Zm0,0H211.75l-.32.72h18.28Zm0,0H211.75l-.32.72h18.28Zm0,0H211.75l-.32.72h18.28Zm0,0H211.75l-.32.72h18.28Zm0,0H211.75l-.32.72h18.28Zm0,0H211.75l-.32.72h18.28Zm0,0H211.75l-.32.72h18.28Zm0,0H211.75l-.32.72h18.28Zm0,0H211.75l-.32.72h18.28Zm0,0H211.75l-.32.72h18.28Zm0,0H211.75l-.32.72h18.28Zm2.32,1.79-.82-1.79h-1l.82,1.79L234.47,30h-.57l-3.73-8.09-.32-.71H211.28l-.32.71L207.24,30h-.61l3.76-8.09.82-1.79h-1l-.82,1.79-4.15,9h2.57L211.86,22h17.42l4,8.77h2.57Zm-2.32-1.79H211.75l-.32.72h18.28Zm0,0H211.75l-.32.72h18.28Zm0,0H211.75l-.32.72h18.28Zm0,0H211.75l-.32.72h18.28Zm0,0H211.75l-.32.72h18.28Zm0,0H211.75l-.32.72h18.28Zm0,0H211.75l-.32.72h18.28Zm0,0H211.75l-.32.72h18.28Zm0,0H211.75l-.32.72h18.28Zm0,0H211.75l-.32.72h18.28Zm0,0H211.75l-.32.72h18.28Zm0,0H211.75l-.32.72h18.28Zm0,0H211.75l-.32.72h18.28Zm0,0H211.75l-.32.72h18.28Zm0,0H211.75l-.32.72h18.28Zm0,0H211.75l-.32.72h18.28Zm0,0H211.75l-.32.72h18.28Zm0,0H211.75l-.32.72h18.28Z"/><path class="cls-2" d="M258.51,20.07l-1,1.79L256,24.37l-1.43-2.51-1-1.79h-1.47l1,1.79,2.5,4.37h.79l2.5-4.37,1-1.79Zm11.13,0v1.79l0,8.52h1.39V20.07Zm-28.62,0V30.38h1.43V20.07Z"/><path class="cls-2" d="M258,20.07l-1,1.79L256,23.47l-.93-1.61-1-1.79h-1l1,1.79,2,3.4,2-3.4,1-1.79Zm1.46,0-1,1.79-2.25,3.9h-.25l-2.26-3.9-1-1.79h-1.07l1,1.79,2.79,4.8h1.29l2.75-4.8,1-1.79Zm12.06,1.79V20.07h-.89v1.79l0,8.09h-.53V20.07h-.9V30.81h2.33ZM242,20.07V30h-.5V20.07h-.89V30.81h2.29V20.07Z"/><path class="cls-2" d="M85.19,21.86H71.85V20.07H84.41A8.31,8.31,0,0,0,85.19,21.86Z"/><path class="cls-2" d="M122.58,20.07v1.79H109.2a8.87,8.87,0,0,0,.79-1.79Z"/><path class="cls-2" d="M166.2,20.07v1.79h-17a3.76,3.76,0,0,0-.75-1.79Z"/><rect class="cls-2" x="182.01" y="20.07" width="2.36" height="1.79"/><polygon class="cls-2" points="230.89 20.07 231.71 21.86 209.39 21.86 210.21 20.07 230.89 20.07"/><polygon class="cls-2" points="254.08 20.07 255.11 21.86 240.59 21.86 240.59 20.07 254.08 20.07"/><polygon class="cls-2" points="271.5 20.07 271.5 21.86 256.97 21.86 257.98 20.07 271.5 20.07"/><path class="cls-2" d="M83.19,16.75a7.13,7.13,0,0,0,.14.89h-11v-.89Z"/><path class="cls-2" d="M122.12,16.75v.89H111c.07-.29.1-.61.14-.89Z"/><path class="cls-2" d="M183.87,16.75v.89H146.31c-.22-.11-.47-.21-.72-.32-.5-.18-1.11-.4-1.75-.57Z"/><polygon class="cls-2" points="212.18 16.75 213.68 16.75 213.29 17.64 211.75 17.64 212.18 16.75"/><polygon class="cls-2" points="242.41 16.75 242.41 17.64 227.78 17.64 227.38 16.75 242.41 16.75"/><polygon class="cls-2" points="261.77 16.75 261.23 17.64 250.78 17.64 250.25 16.75 261.77 16.75"/><rect class="cls-2" x="269.64" y="16.75" width="6.48" height="0.89"/></g></g></svg>